<svg xmlns="http://www.w3.org/2000/svg" width="58" height="58"><defs><filter id="a"><feColorMatrix in="SourceGraphic" values="0 0 0 0 0.709804 0 0 0 0 0.729412 0 0 0 0 0.815686 0 0 0 1.000000 0"/></filter><filter id="b"><feColorMatrix in="SourceGraphic" values="0 0 0 0 0.709804 0 0 0 0 0.729412 0 0 0 0 0.815686 0 0 0 1.000000 0"/></filter></defs><g fill="none" fill-rule="evenodd"><path fill="#F9FAFC" d="M-386-1362h1393V411H-386z"/><g transform="translate(-338 -173)"><rect width="735" height="473" x=".5" y=".5" fill="#FFF" stroke="#CDD0E0" rx="8"/><g transform="translate(338 173)"><rect width="58" height="58" fill="#F4F6F9" rx="11"/><g filter="url(#a)" transform="translate(7 7)"><g fill="#6E7492" fill-rule="nonzero"><path d="M21.428 3.77L8.39 8.66a1.63 1.63 0 00-1.058 1.525v11.408c0 4.839 2.682 9.197 7.075 13.04A36.61 36.61 0 0019.1 38.1l.891.54.732.417.55.29c.458.229.998.229 1.457 0l.55-.29.73-.417.578-.347.314-.193a36.61 36.61 0 004.69-3.466c4.394-3.844 7.076-8.202 7.076-13.041V10.185a1.63 1.63 0 00-1.058-1.526L22.572 3.77a1.63 1.63 0 00-1.144 0zM22 5.5l12.833 4.733v11.372c0 4.112-2.482 8.08-6.707 11.715a37.535 37.535 0 01-4.806 3.49l-.826.494-.494.28-.494-.28-.826-.494a37.535 37.535 0 01-4.806-3.49l-.48-.421c-3.932-3.52-6.227-7.34-6.227-11.294V10.233L22 5.5z"/><path d="M26.852 14.018l1.296 1.297-11 11-1.296-1.297z"/><path d="M17.148 14.018l11 11-1.296 1.297-11-11z"/></g></g></g></g><g><rect width="58" height="58" fill="#F4F6F9" rx="11"/><g filter="url(#b)" transform="translate(10 10)"><g fill="#6E7492" fill-rule="nonzero"><path d="M19 1.583C9.381 1.583 1.583 9.381 1.583 19c0 9.619 7.798 17.417 17.417 17.417 9.619 0 17.417-7.798 17.417-17.417 0-9.619-7.798-17.417-17.417-17.417zm0 3.167c7.87 0 14.25 6.38 14.25 14.25S26.87 33.25 19 33.25 4.75 26.87 4.75 19 11.13 4.75 19 4.75z"/><path d="M19 11.083c.812 0 1.481.612 1.573 1.399l.01.185V19a1.583 1.583 0 01-3.156.185l-.01-.185v-6.333c0-.875.709-1.584 1.583-1.584zM19.016 23.75a1.583 1.583 0 01.184 3.156l-.2.01a1.583 1.583 0 01-.185-3.155l.2-.011z"/></g></g></g></g></svg>