<svg xmlns="http://www.w3.org/2000/svg" xmlns:xlink="http://www.w3.org/1999/xlink" width="58" height="58" version="1.1" viewBox="0 0 58 58"><g id="Widget-Preview---SPECS" fill="none" fill-rule="evenodd" stroke="none" stroke-width="1"><g transform="translate(-402.000000, -3624.000000)"><rect width="1402" height="3994" x="0" y="0" fill="#F9FAFC"/><g id="Chart-Copy-5" transform="translate(62.000000, 3445.000000)"><rect id="background" width="735" height="473" x=".5" y=".5" fill="#FFF" stroke="#CDD0E0" rx="8"/><g id="Group" transform="translate(340.000000, 179.000000)"><g id="Group-2"><rect id="Rectangle" width="58" height="58" x="0" y="0" fill="#F4F6F9" rx="11"/><g id="settings" fill="#CDD0E0" transform="translate(9.000000, 9.000000)"><path id="Path" d="M21.7454545,16.5454545 C21.4235906,17.2747428 21.5780312,18.1265066 22.1354545,18.6963636 L22.2063636,18.7672727 C22.6502003,19.2106159 22.8995866,19.8122145 22.8995866,20.4395455 C22.8995866,21.0668764 22.6502003,21.668475 22.2063636,22.1118182 C21.7630205,22.5556548 21.1614219,22.8050412 20.5340909,22.8050412 C19.90676,22.8050412 19.3051613,22.5556548 18.8618182,22.1118182 L18.7909091,22.0409091 C18.221052,21.4834858 17.3692883,21.3290451 16.64,21.6509091 C15.9256256,21.9570807 15.4612816,22.6582402 15.4581818,23.4354545 L15.4581818,23.6363636 C15.4581818,24.941764 14.3999458,26 13.0945455,26 C11.7891451,26 10.7309091,24.941764 10.7309091,23.6363636 L10.7309091,23.53 C10.7121851,22.7295201 10.2060303,22.0218407 9.45454545,21.7454545 C8.72525719,21.4235906 7.87349341,21.5780312 7.30363636,22.1354545 L7.23272727,22.2063636 C6.78938412,22.6502003 6.1877855,22.8995866 5.56045455,22.8995866 C4.9331236,22.8995866 4.33152497,22.6502003 3.88818182,22.2063636 C3.44434517,21.7630205 3.19495881,21.1614219 3.19495881,20.5340909 C3.19495881,19.90676 3.44434517,19.3051613 3.88818182,18.8618182 L3.95909091,18.7909091 C4.51651422,18.221052 4.6709549,17.3692883 4.34909091,16.64 C4.0429193,15.9256256 3.34175982,15.4612816 2.56454545,15.4581818 L2.36363636,15.4581818 C1.05823605,15.4581818 0,14.3999458 0,13.0945455 C0,11.7891451 1.05823605,10.7309091 2.36363636,10.7309091 L2.47,10.7309091 C3.27047994,10.7121851 3.97815934,10.2060303 4.25454545,9.45454545 C4.57640945,8.72525719 4.42196876,7.87349341 3.86454545,7.30363636 L3.79363636,7.23272727 C3.34979972,6.78938412 3.10041336,6.1877855 3.10041336,5.56045455 C3.10041336,4.9331236 3.34979972,4.33152497 3.79363636,3.88818182 C4.23697952,3.44434517 4.83857814,3.19495881 5.46590909,3.19495881 C6.09324004,3.19495881 6.69483866,3.44434517 7.13818182,3.88818182 L7.20909091,3.95909091 C7.77894796,4.51651422 8.63071174,4.6709549 9.36,4.34909091 L9.45454545,4.34909091 C10.1689198,4.0429193 10.6332638,3.34175982 10.6363636,2.56454545 L10.6363636,2.36363636 C10.6363636,1.05823605 11.6945997,0 13,0 C14.3054003,0 15.3636364,1.05823605 15.3636364,2.36363636 L15.3636364,2.47 C15.3667362,3.24721436 15.8310802,3.94837385 16.5454545,4.25454545 C17.2747428,4.57640945 18.1265066,4.42196876 18.6963636,3.86454545 L18.7672727,3.79363636 C19.2106159,3.34979972 19.8122145,3.10041336 20.4395455,3.10041336 C21.0668764,3.10041336 21.668475,3.34979972 22.1118182,3.79363636 C22.5556548,4.23697952 22.8050412,4.83857814 22.8050412,5.46590909 C22.8050412,6.09324004 22.5556548,6.69483866 22.1118182,7.13818182 L22.0409091,7.20909091 C21.4834858,7.77894796 21.3290451,8.63071174 21.6509091,9.36 L21.6509091,9.45454545 C21.9570807,10.1689198 22.6582402,10.6332638 23.4354545,10.6363636 L23.6363636,10.6363636 C24.941764,10.6363636 26,11.6945997 26,13 C26,14.3054003 24.941764,15.3636364 23.6363636,15.3636364 L23.53,15.3636364 C22.7527856,15.3667362 22.0516262,15.8310802 21.7454545,16.5454545 Z"/></g><g id="settings-copy" fill="#9CA2BD" transform="translate(26.000000, 28.000000)"><path id="Path" d="M16.2181818,12.8181818 C16.0077323,13.2950241 16.1087127,13.8519466 16.4731818,14.2245455 L16.5195455,14.2709091 C16.8097463,14.5607873 16.9728067,14.9541403 16.9728067,15.3643182 C16.9728067,15.7744961 16.8097463,16.1678491 16.5195455,16.4577273 C16.2296672,16.7479282 15.8363143,16.9109885 15.4261364,16.9109885 C15.0159584,16.9109885 14.6226055,16.7479282 14.3327273,16.4577273 L14.2863636,16.4113636 C13.9137648,16.0468945 13.3568423,15.9459141 12.88,16.1563636 C12.4129091,16.3565528 12.1092995,16.8150032 12.1072727,17.3231818 L12.1072727,17.4545455 C12.1072727,18.3080764 11.4153492,19 10.5618182,19 C9.7082872,19 9.01636364,18.3080764 9.01636364,17.4545455 L9.01636364,17.385 C9.00412101,16.8616093 8.67317364,16.3988958 8.18181818,16.2181818 C7.70497586,16.0077323 7.14805339,16.1087127 6.77545455,16.4731818 L6.72909091,16.5195455 C6.43921269,16.8097463 6.04585975,16.9728067 5.63568182,16.9728067 C5.22550389,16.9728067 4.83215094,16.8097463 4.54227273,16.5195455 C4.25207184,16.2296672 4.08901153,15.8363143 4.08901153,15.4261364 C4.08901153,15.0159584 4.25207184,14.6226055 4.54227273,14.3327273 L4.58863636,14.2863636 C4.95310545,13.9137648 5.0540859,13.3568423 4.84363636,12.88 C4.64344724,12.4129091 4.1849968,12.1092995 3.67681818,12.1072727 L3.54545455,12.1072727 C2.69192357,12.1072727 2,11.4153492 2,10.5618182 C2,9.7082872 2.69192357,9.01636364 3.54545455,9.01636364 L3.615,9.01636364 C4.13839073,9.00412101 4.60110418,8.67317364 4.78181818,8.18181818 C4.99226772,7.70497586 4.89128727,7.14805339 4.52681818,6.77545455 L4.48045455,6.72909091 C4.19025366,6.43921269 4.02719335,6.04585975 4.02719335,5.63568182 C4.02719335,5.22550389 4.19025366,4.83215094 4.48045455,4.54227273 C4.77033276,4.25207184 5.16368571,4.08901153 5.57386364,4.08901153 C5.98404157,4.08901153 6.37739451,4.25207184 6.66727273,4.54227273 L6.71363636,4.58863636 C7.0862352,4.95310545 7.64315767,5.0540859 8.12,4.84363636 L8.18181818,4.84363636 C8.64890911,4.64344724 8.95251866,4.1849968 8.95454545,3.67681818 L8.95454545,3.54545455 C8.95454545,2.69192357 9.64646902,2 10.5,2 C11.353531,2 12.0454545,2.69192357 12.0454545,3.54545455 L12.0454545,3.615 C12.0474813,4.12317862 12.3510909,4.58162905 12.8181818,4.78181818 C13.2950241,4.99226772 13.8519466,4.89128727 14.2245455,4.52681818 L14.2709091,4.48045455 C14.5607873,4.19025366 14.9541403,4.02719335 15.3643182,4.02719335 C15.7744961,4.02719335 16.1678491,4.19025366 16.4577273,4.48045455 C16.7479282,4.77033276 16.9109885,5.16368571 16.9109885,5.57386364 C16.9109885,5.98404157 16.7479282,6.37739451 16.4577273,6.66727273 L16.4113636,6.71363636 C16.0468945,7.0862352 15.9459141,7.64315767 16.1563636,8.12 L16.1563636,8.18181818 C16.3565528,8.64890911 16.8150032,8.95251866 17.3231818,8.95454545 L17.4545455,8.95454545 C18.3080764,8.95454545 19,9.64646902 19,10.5 C19,11.353531 18.3080764,12.0454545 17.4545455,12.0454545 L17.385,12.0454545 C16.8768214,12.0474813 16.4183709,12.3510909 16.2181818,12.8181818 Z" transform="translate(10.500000, 10.500000) rotate(-15.000000) translate(-10.500000, -10.500000)"/></g></g></g></g></g></g></svg>