<svg xmlns="http://www.w3.org/2000/svg" xmlns:xlink="http://www.w3.org/1999/xlink" width="58" height="58" viewBox="0 0 58 58"><filter id="a"><feColorMatrix in="SourceGraphic" type="matrix" values="0 0 0 0 0.709804 0 0 0 0 0.729412 0 0 0 0 0.815686 0 0 0 1.000000 0"/></filter><g fill="none" fill-rule="evenodd"><path fill="#f9fafc" d="m-401-4144h1402v4599h-1402z"/><rect width="735" height="473" x="-338.5" y="-142.5" fill="#fff" stroke="#cdd0e0" rx="8"/><g><rect width="58" height="58" fill="#f4f6f9" rx="11"/><g filter="url(#a)" transform="translate(7 7)"><path fill="#6e7492" fill-rule="nonzero" d="m34.8333333 11.9166667c2.5313051 0 4.5833334 2.0520282 4.5833334 4.5833333v18.3333333c0 2.5313051-2.0520283 4.5833334-4.5833334 4.5833334h-18.3333333c-2.5313051 0-4.5833333-2.0520283-4.5833333-4.5833334v-18.3333333c0-2.5313051 2.0520282-4.5833333 4.5833333-4.5833333zm0 1.8333333h-18.3333333c-1.5187831 0-2.75 1.2312169-2.75 2.75v18.3333333c0 1.5187831 1.2312169 2.75 2.75 2.75h18.3333333c1.5187831 0 2.75-1.2312169 2.75-2.75v-18.3333333c0-1.5187831-1.2312169-2.75-2.75-2.75zm-13.75 8.25v11h-1.8333333v-11zm11 1.8333333v9.1666667h-1.8333333v-9.1666667zm-7.3333333 1.8333334v7.3333333h-1.8333333v-7.3333333zm3.6666667-7.3333334v14.6666667h-1.8333334v-14.6666667zm-5.8525641-13.74999997c2.1232485 0 3.8619605 1.64639683 4.0091391 3.73219372l.0100916.28703705v1.5512821h-1.8333333v-1.5512821c0-1.13178545-.8601501-2.0626721-1.9624021-2.17461189l-.2234953-.01128554h-13.9615385c-1.13178545 0-2.0626721.86015005-2.17461189 1.96240212l-.01128554.22349531v13.9615385c0 1.1317854.86015005 2.0626721 1.96240212 2.1746119l.22349531.0112855h1.5512821v1.8333333h-1.5512821c-2.12324856 0-3.86196054-1.6463968-4.00913918-3.7321937l-.01009159-.287037v-13.9615385c0-2.12324856 1.64639683-3.86196054 3.73219372-4.00913918l.28703705-.01009159z"/></g></g></g></svg>