<svg height="58" viewBox="0 0 58 58" width="58" xmlns="http://www.w3.org/2000/svg" xmlns:xlink="http://www.w3.org/1999/xlink"><filter id="a"><feColorMatrix in="SourceGraphic" type="matrix" values="0 0 0 0 0.709804 0 0 0 0 0.729412 0 0 0 0 0.815686 0 0 0 1.000000 0"/></filter><g fill="none" fill-rule="evenodd"><path d="m-386-823h1393v1773h-1393z" fill="#f9fafc"/><rect fill="#fff" height="473" rx="8" stroke="#cdd0e0" width="735" x="-337.5" y="-172.5"/><g><rect fill="#f4f6f9" height="58" rx="11" width="58"/><g filter="url(#a)" transform="translate(7 7)"><g fill="#6e7492" fill-rule="nonzero" transform="translate(7.333333 3.666667)"><path d="m14.0944655.10375986-13.03703703 4.88888889c-.63605052.23851894-1.05742847.84656752-1.05742847 1.52586977v11.40740738c0 4.8391012 2.68197872 9.1973167 7.07502953 13.0412361 1.4967246 1.309634 3.09367047 2.4674198 4.69089817 3.4656871l.8909335.5407167.7314307.4164701.5495822.2897714c.4587856.2293927.9987996.2293927 1.4575851 0l.5495823-.2897714.7314306-.4164701.5776125-.346824c.1018085-.0623653.2062948-.1270013.3133211-.1938927 1.5972276-.9982673 3.1941735-2.1560531 4.6908981-3.4656871 4.3930508-3.8439194 7.0750295-8.2021349 7.0750295-13.0412361v-11.40740738c0-.67930225-.4213779-1.28735083-1.0574284-1.52586977l-13.0370371-4.88888889c-.3689239-.13834648-.7754784-.13834648-1.1444023 0zm.5722012 1.72957347 12.8333333 4.73298584v11.37178733c0 4.1119307-2.4827739 8.0797785-6.7072584 11.7151285-1.5245182 1.3119133-3.1654541 2.4819354-4.806073 3.4903804l-.8261376.4936067-.4938643.2794446-.4938643-.2794446-.8261377-.4936067c-1.6406189-1.008445-3.2815548-2.1784671-4.80607292-3.4903804l-.47966887-.4209283c-3.93212551-3.5198539-6.22758958-7.3404207-6.22758958-11.2942002v-11.37178733z"/><g transform="translate(9.166667 11)"><path d="m10.3518188-.64818122 1.2963624 1.29636244-10.99999998 10.99999998-1.29636244-1.2963624z"/><path d="m.64818122-.64818122 10.99999998 11.00000002-1.2963624 1.2963624-11.00000002-10.99999998z"/></g></g></g></g></g></svg>
